<?xml version="1.0" standalone="no"?>
<!DOCTYPE svg PUBLIC "-//W3C//DTD SVG 20010904//EN"
 "http://www.w3.org/TR/2001/REC-SVG-20010904/DTD/svg10.dtd">
<svg version="1.0" xmlns="http://www.w3.org/2000/svg"
 width="1280.000000pt" height="640.000000pt" viewBox="0 0 1280.000000 640.000000"
 preserveAspectRatio="xMidYMid meet">
<metadata>
Created by potrace 1.15, written by Peter Selinger 2001-2017
</metadata>
<g transform="translate(0.000000,640.000000) scale(0.100000,-0.100000)"
fill="#000000" stroke="none">
<path d="M958 5239 c-180 -20 -300 -138 -409 -404 l-42 -102 -52 -12 c-29 -7
-73 -25 -99 -41 -144 -92 -277 -470 -333 -945 -21 -184 -24 -711 -5 -910 52
-535 157 -888 312 -1046 46 -47 67 -61 120 -77 35 -11 68 -26 72 -33 4 -8 27
-57 51 -110 80 -173 170 -290 258 -334 100 -51 152 -58 479 -61 354 -4 374 0
472 74 146 111 277 352 368 679 99 359 151 678 166 1036 5 100 11 160 18 162
18 6 983 73 1361 95 1150 65 1917 85 2835 77 598 -6 1490 -27 1740 -42 52 -3
219 -10 370 -15 486 -18 1598 -78 1776 -96 l61 -6 7 -168 c12 -291 43 -529
108 -810 112 -490 246 -775 426 -912 98 -74 118 -78 472 -74 327 3 379 10 479
61 88 44 178 161 258 334 24 53 47 102 51 110 4 7 37 22 72 33 218 67 367 455
432 1123 19 199 16 726 -5 910 -56 475 -189 853 -333 945 -26 16 -70 34 -99
41 l-52 12 -42 102 c-82 199 -176 322 -282 370 -83 37 -178 44 -514 40 -316
-3 -334 -6 -419 -64 -170 -117 -313 -394 -415 -806 -79 -318 -114 -546 -137
-887 -5 -87 -8 -98 -25 -98 -10 0 -211 16 -446 35 -957 78 -1564 116 -2473
157 -386 17 -1859 17 -2250 0 -988 -43 -1650 -82 -2496 -147 -249 -19 -456
-35 -462 -35 -6 0 -13 38 -16 88 -26 361 -58 569 -137 887 -102 412 -245 689
-415 806 -85 58 -101 61 -434 63 -168 2 -335 -1 -372 -5z"/>
</g>
</svg>
