<svg xmlns="http://www.w3.org/2000/svg" height="48.26" viewBox="0 0 249.33456 48.260059" width="249.33"><g transform="matrix(1.25 0 0 -1.25 -258.45 520.49)"><g><path d="m14.213 3.3555c-6.216 0.0218-11.959 2.9816-11.959 9.2015-0.0001 11.154 18.057 9.013 18.057 17.222 0 3.686-4.479 6.143-7.477 6.143-2.115 0-4.2836-0.454-6.3106-1.25-2.6322-1.103-4.5546-3.248-4.5546-3.248l-0.7989 0.131 2.0371 7.713h0.4844s0.324-0.734 1.1973-0.514l-0.002-0.004c2.3893 0.65 4.8738 0.963 7.3633 0.963 9.172 0 14.331-5.744 14.092-11.369-0.444-10.322-18.09-9.157-18.09-16.365 0-3.6355 3.786-5.0298 6.787-5.0298 1.119 0 2.891 0.2395 4.176 0.7715 0.99 0.3695 2.802 1.4874 3.916 2.8243 0.156 0.218 0.262 0.361 0.262 0.361h0.021c0 0.003 0.006 0.002 0.006 0.006h0.373l0.551 0.004-1.895-7.0801h-0.648c-0.281 0.4894-1.326 0.3028-1.326 0.3028-1.891-0.4756-3.095-0.6359-5.014-0.7481-0.417-0.0245-0.834-0.0366-1.248-0.0351zm44.516 0c-6.215 0.0218-11.961 2.9816-11.961 9.2015 0 11.154 18.06 9.013 18.06 17.222 0 3.686-4.481 6.143-7.48 6.143-2.115 0-4.281-0.454-6.309-1.25-2.63-1.103-4.557-3.248-4.557-3.248l-0.796 0.131 2.037 7.713h0.486s0.322-0.734 1.193-0.514v-0.004c2.389 0.65 4.872 0.963 7.364 0.963 9.169 0 14.328-5.744 14.088-11.369-0.44-10.322-18.086-9.157-18.086-16.365 0-3.6355 3.786-5.0298 6.787-5.0298 1.117 0 2.893 0.2395 4.175 0.7715 0.988 0.3695 2.802 1.4874 3.915 2.8243 0.158 0.218 0.263 0.361 0.263 0.361h0.022s0.003 0.002 0.006 0.006h0.371l0.552 0.004-1.894-7.0801h-0.649c-0.281 0.4894-1.326 0.3028-1.326 0.3028-1.89-0.4756-3.092-0.6359-5.013-0.7481-0.417-0.0245-0.834-0.0366-1.248-0.0351zm-28.446 0.5351v0.8438l2.473 1.2148s0.003 0.0007 0.006 0.002l0.088 0.0429c0.518 0.2906 0.744 0.8497 0.769 1.4317v24.969c-0.161 7.527-1.773 11.434-9.406 14.07v0.93s8.04-0.05 11.678-4.403h-0.004c1.909-2.197 3.063-5.557 3.293-10.525v-24.92c0.002-0.0039 0.009-0.0099 0.009-0.0099 0-0.6237 0.224-1.2331 0.774-1.543l0.09-0.0429 0.004-0.002 2.472-1.2168v-0.8418h-12.246zm43.828 0.0586v0.002h-0.791v0.8437l2.473 1.2149s-0.001 0.0026 0.004 0.0039l0.088 0.0429c0.551 0.3103 0.777 0.9185 0.777 1.5411 0 0 0.004 0.0065 0.004 0.0078v17.88c0 3.727-0.101 7.197 2.633 10.205 1.21 1.316 2.774 2.24 4.476 2.823 0 0 0.257 0.096 0.75 0.234 0.205 0.052 0.411 0.109 0.62 0.158 2.369 0.575 7.383 1.395 11.962-0.441 0.024-0.011 0.048-0.021 0.071-0.031 0.058-0.021 0.125-0.038 0.183-0.061h-0.017c1.539-0.591 2.956-1.469 4.066-2.682 2.74-3.008 2.63-6.478 2.63-10.205l0.02-17.914v-0.0329c0.02-0.6029 0.24-1.1842 0.77-1.4825l0.09-0.0429c0-0.0007 0.01-0.0039 0.01-0.0039l2.47-1.2149v-0.8437h-0.79v-0.002h-10.393v0.002h-0.785v0.8437l2.47 1.2149s0.002 0.0026 0.002 0.0039l0.094 0.0429c0.486 0.2775 0.718 0.7886 0.762 1.336v0.1504l0.011 17.943c0 6.694-2.739 10.449-7.779 10.623l-0.015 0.036c-0.272-0.004-0.545-0.016-0.815-0.016-5.325 0-8.223-3.757-8.223-10.643v-14.285c0-2.0474-0.007-3.1573-0.003-3.8436 0.051-0.5344 0.285-1.0285 0.763-1.3008l0.09-0.0429 0.006-0.0039 2.469-1.2149v-0.8437h-0.768v-0.002h-10.385z" transform="matrix(.8 0 0 -.8 206.76 416.39)" fill="#0055a2"/><path d="m191.78 1.123l-3.28 2.4356 0.16 0.3691 4.62-1.6543-0.5-1.1504h-1zm-21.46 3.5098c-3.62-0.005-6.44 2.7469-6.44 6.0372 0 3.6 2.94 6.094 6.41 6.094h0.02 0.04c3.47 0 6.41-2.494 6.41-6.094 0-3.2903-2.82-6.0424-6.44-6.0372zm-47.11 0.0078c-2.22-0.1294-4.38 0.8424-4.38 3.041 0 3.7044 5.99 2.9924 5.99 5.7184 0 1.221-1.49 2.036-2.48 2.036-0.7 0-1.42-0.15-2.09-0.415-0.88-0.366-1.52-1.078-1.52-1.078l-0.26 0.045 0.67 2.559h0.16s0.11-0.241 0.4-0.17c0.8 0.216 1.62 0.318 2.45 0.318 3.04 0 4.75-1.905 4.67-3.773v-0.002c-0.15-3.4234-6-3.0364-6-5.4298 0-1.2073 1.25-1.6679 2.25-1.6679 0.37 0 0.96 0.0782 1.39 0.2539 0.32 0.1215 0.93 0.495 1.3 0.9375 0.05 0.0736 0.08 0.1211 0.08 0.1211h0.01v0.0019h0.13l0.18 0.002-0.63-2.3516h-0.22c-0.09 0.1637-0.44 0.1035-0.44 0.1035-0.62-0.1588-1.02-0.2119-1.66-0.25zm59.2 0c-2.22-0.1294-4.39 0.8424-4.39 3.041 0 3.7044 6 2.9924 6 5.7184 0 1.221-1.49 2.036-2.48 2.036-0.71 0-1.43-0.15-2.1-0.415-0.87-0.366-1.51-1.078-1.51-1.078l-0.26 0.045 0.67 2.559h0.16s0.11-0.241 0.4-0.17v-0.002c0.79 0.217 1.62 0.32 2.44 0.32 3.05 0 4.76-1.905 4.68-3.773v-0.002c-0.15-3.4234-6.01-3.0364-6.01-5.4298 0-1.2073 1.26-1.6679 2.26-1.6679 0.37 0 0.96 0.0782 1.38 0.2539 0.33 0.1215 0.93 0.495 1.3 0.9375 0.05 0.0736 0.09 0.1211 0.09 0.1211h0.01v0.0019h0.12l0.19 0.002-0.63-2.3516h-0.22c-0.09 0.1637-0.44 0.1035-0.44 0.1035-0.63-0.1588-1.03-0.2119-1.66-0.25zm24.19 0c-2.21-0.1294-4.38 0.8424-4.38 3.041 0 3.7044 5.99 2.9924 5.99 5.7184 0 1.221-1.48 2.036-2.48 2.036-0.7 0-1.42-0.15-2.09-0.415-0.88-0.366-1.51-1.078-1.51-1.078l-0.27 0.045 0.68 2.559h0.16s0.1-0.241 0.4-0.17v-0.002c0.79 0.217 1.61 0.32 2.44 0.32 3.04 0 4.75-1.905 4.68-3.773v-0.002c-0.15-3.4234-6.01-3.0364-6.01-5.4298 0-1.2073 1.26-1.6679 2.25-1.6679 0.37 0 0.96 0.0782 1.39 0.2539 0.33 0.1215 0.93 0.495 1.3 0.9375 0.05 0.0736 0.09 0.1211 0.09 0.1211v0.0019h0.13l0.18 0.002-0.62-2.3516h-0.22c-0.09 0.1637-0.44 0.1035-0.44 0.1035-0.63-0.1588-1.03-0.2119-1.67-0.25zm4.73 0.0625l-0.01 0.0117-0.72 2.4473h0.32l0.57-0.7851c0.15-0.1981 0.35-0.2754 0.56-0.2754h2.44v9.1604c0 0.207-0.07 0.409-0.26 0.511l-0.03 0.016-0.82 0.402v0.282h4.03v-0.282l-0.82-0.402-0.03-0.016c-0.19-0.102-0.26-0.303-0.26-0.509 0 0 0-0.005-0.01-0.006v-9.1564h2.43c0.21 0 0.42 0.0773 0.57 0.2754l0.57 0.7851h0.32l-0.73-2.457v-0.002h-0.1c-0.21 0.0869-0.48 0.1291-0.89 0.1231h-6.14c-0.35 0.0062-0.68-0.0362-0.89-0.1231h-0.1zm18.96 0v0.0117l-0.73 2.4473h0.32l0.57-0.7851c0.15-0.1981 0.36-0.2754 0.57-0.2754h2.43v9.1604c0 0.207-0.08 0.409-0.25 0.511l-0.03 0.016h-0.01l-0.82 0.402v0.282h4.03v-0.282l-0.82-0.402-0.03-0.016c-0.18-0.102-0.26-0.303-0.26-0.509v-0.006-9.1564h2.43c0.2 0 0.41 0.0773 0.56 0.2754l0.57 0.7851h0.32l-0.73-2.457v-0.002h-0.1c-0.21 0.0869-0.47 0.1291-0.89 0.1231h-6.13c-0.35 0.0062-0.69-0.0362-0.9-0.1231h-0.1zm-36.75 0.0332c-0.23 0.1238-0.4 0.0879-0.7 0.0879h-6.03v0.002h-0.17v0.2812l0.82 0.4004v0.002l0.03 0.0136c0.18 0.1018 0.26 0.3077 0.26 0.5137v0.0078c0.01 0.5263 0 1.101 0 1.2832v6.6929 1.252c0 0.209-0.08 0.409-0.26 0.512l-0.03 0.016-0.82 0.404v0.279h7.71l0.96-2.695h-0.31l-0.63 0.891-0.01 0.002v0.006c-0.05 0.073-0.38 0.494-1.06 0.539h-3.74v-4.225s1.09 0.004 1.79 0.004c0.2 0 0.41 0.075 0.51 0.258l0.02 0.029v0.002l0.36 0.818h0.27v-3.0974h-0.27l-0.37 0.4453c-0.18 0.2099-0.32 0.2618-0.53 0.2618h-1.78v-3.7051h3.33c0.2 0 0.41 0.0806 0.56 0.2773l0.63 0.8672h0.32l-0.66-2.2285-0.05-0.1973h-0.15zm53.19 0c-0.23 0.1238-0.4 0.0879-0.7 0.0879h-6.02v0.002h-0.18v0.2812l0.82 0.4004v0.002l0.03 0.0136c0.19 0.1018 0.26 0.3077 0.26 0.5137 0 0 0 0.0066 0.01 0.0078v1.2832 6.6929c0 0.189 0 0.754-0.01 1.252 0 0.209-0.07 0.409-0.26 0.512l-0.03 0.016-0.82 0.404v0.279h7.72l0.96-2.695h-0.32l-0.63 0.891v0.002l-0.01 0.006c-0.05 0.073-0.38 0.494-1.05 0.539h-3.75l0.01-4.225s1.08 0.004 1.78 0.004c0.21 0 0.41 0.075 0.51 0.258l0.02 0.029v0.002l0.36 0.818h0.28v-3.0974h-0.28l-0.36 0.4453c-0.19 0.2099-0.32 0.2618-0.53 0.2618h-1.78v-3.7051h3.32c0.21 0 0.42 0.0806 0.56 0.2773l0.64 0.8672h0.31l-0.65-2.2285-0.06-0.1973h-0.15zm-87.56 0.0684v0.2812l0.82 0.4024v0.0019l0.03 0.0157c0.17 0.0958 0.24 0.2809 0.26 0.4726v8.2875c-0.06 2.497-0.59 3.794-3.13 4.67v0.306s2.67-0.016 3.88-1.459c0.63-0.731 1.01-1.844 1.09-3.492v-8.2715-0.0019c0-0.2088 0.07-0.4113 0.26-0.5117l0.03-0.0157v-0.0019l0.82-0.4024v-0.2812h-4.06zm-28.39 0.0039v0.2812l0.64 0.3321c0.15 0.087 0.26 0.1984 0.26 0.375-0.01 0.1171-0.03 0.1875-0.03 0.1875-0.43 1.1527-3.09 7.9706-3.09 7.9706-0.18 0.453-0.33 0.902-0.55 1.303-0.01 0.022-0.03 0.045-0.04 0.064 0 0.016-0.01 0.03-0.02 0.049-0.14 0.219-0.31 0.324-0.47 0.414l-0.85 0.416v0.283h3.93v-0.283l-0.82-0.402-0.04-0.014c-0.01-0.006-0.01-0.013-0.02-0.019 0 0-0.01-0.005-0.01-0.01-0.17-0.131-0.16-0.36-0.16-0.36v-0.093c0.02-0.057 0.03-0.117 0.05-0.178 0.05-0.15 1.05-2.719 1.05-2.719h4.5l1.05 2.715 0.03 0.1c0.09 0.268-0.02 0.434-0.1 0.504v0.002c-0.01 0.008-0.01 0.013-0.02 0.015-0.02 0.015-0.04 0.029-0.06 0.043l-0.03 0.014-0.82 0.402v0.281h4.46v-0.281l-0.85-0.416c-0.18-0.103-0.38-0.228-0.52-0.527-0.27-0.449-0.36-0.782-0.57-1.303l-3.25-8.205c-0.37-0.9279-1.08-0.9414-1.08-0.9414h-2.57zm9.34 0v0.0176h-0.16v0.2812l0.82 0.4024 0.02 0.0156c0.19 0.1017 0.27 0.3101 0.27 0.5156v9.268c-0.01 0.195-0.08 0.382-0.26 0.478l-0.02 0.014h-0.01l-0.82 0.406v0.277h1.35v-0.005h1v0.005h1.35v-0.277l-0.82-0.406-0.04-0.014c-0.16-0.094-0.24-0.276-0.25-0.465v-7.9177l5.57 7.6207s1.13 1.519 2.51 1.739c0 0 0.49 0.093 1.03 0.025v-0.195c-0.05-0.02-0.1-0.037-0.16-0.063-0.64-0.318-0.77-1.058-0.79-1.519v-8.9925c0-0.201 0.07-0.3935 0.25-0.4941l0.03-0.0156 0.82-0.4024v-0.2812h-0.18v-0.0176h-3.36v0.0176h-0.15v0.2812l0.81 0.4024h0.01l0.03 0.0156c0.18 0.1006 0.25 0.2999 0.25 0.5v7.6226l-6.07-8.3042c-0.4-0.5406-1.05-0.5352-1.05-0.5352h-1.98zm82.44 0v0.2812l0.64 0.3321c0.15 0.087 0.25 0.1984 0.26 0.375-0.01 0.1171-0.04 0.1875-0.04 0.1875-0.42 1.1527-3.08 7.9706-3.08 7.9706-0.18 0.453-0.34 0.902-0.55 1.303-0.01 0.022-0.03 0.045-0.04 0.064-0.01 0.016-0.02 0.03-0.03 0.049-0.13 0.219-0.3 0.324-0.46 0.414l-0.85 0.416v0.283h3.93v-0.283l-0.83-0.402-0.03-0.014c-0.01-0.006-0.02-0.013-0.02-0.019 0 0-0.01-0.005-0.01-0.01-0.17-0.131-0.17-0.36-0.17-0.36h0.01c-0.01-0.03 0-0.06 0-0.093 0.01-0.057 0.03-0.117 0.05-0.178 0.04-0.15 1.04-2.719 1.04-2.719h4.5l1.05 2.715 0.03 0.1c0.09 0.268-0.01 0.434-0.09 0.504v0.005c-0.01 0.005-0.02 0.01-0.02 0.012-0.02 0.015-0.04 0.029-0.06 0.043l-0.03 0.014-0.82 0.402v0.283h4.46v-0.283l-0.85-0.416c-0.18-0.103-0.38-0.228-0.52-0.527-0.27-0.449-0.36-0.782-0.57-1.303l-3.25-8.205c-0.38-0.9279-1.08-0.9414-1.08-0.9414h-2.57zm-52.24 1.0879c2.7 0.01 4.43 1.9729 4.43 4.6155 0 2.442-1.71 4.947-4.43 4.984-2.72-0.037-4.44-2.542-4.44-4.984 0-2.6426 1.73-4.6058 4.44-4.6155zm-37.5 0.5781l1.79 4.6424h-3.55l1.76-4.6424zm91.77 0l1.79 4.6424h-3.54l1.75-4.6424zm-39.09 19.425c-2.21-0.13-4.38 0.84-4.38 3.041 0 3.7 5.99 2.993 5.99 5.717 0 1.222-1.49 2.037-2.48 2.037-0.71 0-1.42-0.15-2.1-0.416-0.87-0.364-1.51-1.074-1.51-1.074l-0.26 0.041 0.67 2.561h0.16s0.11-0.245 0.4-0.172c0.79 0.216 1.62 0.32 2.44 0.32 3.05 0 4.76-1.907 4.68-3.775-0.15-3.425-6-3.039-6-5.43 0-1.205 1.25-1.668 2.25-1.668 0.37 0 0.96 0.077 1.38 0.254 0.33 0.126 0.93 0.496 1.3 0.939 0.06 0.071 0.09 0.12 0.09 0.12h0.01v0.001h0.12l0.19 0.002-0.63-2.349h-0.22c-0.09 0.162-0.44 0.099-0.44 0.099-0.62-0.159-1.02-0.211-1.66-0.248zm10.46 0.063v0.012l-0.72 2.443h0.31l0.58-0.779c0.15-0.199 0.35-0.276 0.56-0.276v-0.002h2.43v9.157 0.002c0 0.209-0.07 0.411-0.25 0.513l-0.03 0.012v0.004l-0.82 0.402v0.279h4.02v-0.279l-0.82-0.402v-0.002-0.002l-0.03-0.012c-0.18-0.102-0.26-0.305-0.26-0.512v-0.003-9.159h2.43v0.004c0.21 0 0.42 0.077 0.56 0.276l0.58 0.779h0.31l-0.72-2.455h-0.11c-0.21 0.088-0.47 0.129-0.89 0.125h-6.13c-0.35 0.004-0.68-0.037-0.89-0.125h-0.11zm-27.63 0.031c-0.24 0.125-0.4 0.09-0.71 0.09h-6.02v0.004h-0.17v0.279l0.82 0.403 0.03 0.015c0.18 0.103 0.26 0.303 0.26 0.512v0.008c0.01 0.527 0 1.099 0 1.285v6.691 1.254c0 0.208-0.08 0.409-0.26 0.51l-0.03 0.014-0.82 0.406v0.281h7.71l0.96-2.699h-0.31-0.01l-0.63 0.892v0.002l-0.01 0.008c-0.04 0.072-0.37 0.493-1.05 0.535h-3.74v-4.222s1.09 0.002 1.79 0.002c0.2 0 0.41 0.076 0.51 0.259l0.01 0.03c0 0.001 0.01 0.002 0.01 0.002l0.35 0.82h0.28v-3.104h-0.28l-0.36 0.452c-0.18 0.207-0.32 0.259-0.53 0.259h-1.78v-3.705h3.33c0.2 0 0.41 0.079 0.55 0.278l0.64 0.863h0.32l-0.66-2.223-0.06-0.201h-0.14zm2.33 0.068v0.282l0.82 0.404 0.04 0.016c0.18 0.101 0.25 0.304 0.25 0.509 0 0 0.01 0.007 0.01 0.008v1.285 6.688 1.277c0 0.206-0.08 0.407-0.26 0.508l-0.03 0.016-0.82 0.4v0.283h1.35v-0.002h1.34v0.002h1.35v-0.283l-0.82-0.4h-0.01l-0.02-0.016c-0.19-0.101-0.26-0.304-0.26-0.51 0 0 0-0.003-0.01-0.006-0.01-0.482 0-1.021 0-1.271v-2.57h0.47l-0.01 0.006s0.01-0.005 0.04-0.006h0.32c0.3 0.032 0.73 0.164 1.07 0.619l0.19 0.308v0.002l1.66 2.764c0.29 0.392 1.17 1.587 3.49 1.395l0.13-0.008c0.12 0 0.22-0.009 0.28-0.016v-0.279l-0.84-0.412c-0.24-0.11-0.47-0.275-0.68-0.455-0.15-0.137-0.38-0.393-0.38-0.393-0.29-0.245-2-3.191-2-3.191-0.25-0.549-0.7-0.672-0.94-0.7 1.41-0.274 2.63-1.485 2.63-3.238 0-1.613-1.41-3.012-3.8-3.012h-3.21v-0.004h-1.35zm-26.82 0.002v0.282l0.83 0.404 0.02 0.014c0.19 0.103 0.26 0.305 0.26 0.511v0.004 7.985c0 0.22 0.01 0.803 0 1.267 0 0.206-0.08 0.415-0.26 0.516l-0.03 0.012-0.82 0.408v0.279h4.03v-0.279l-0.82-0.408-0.03-0.012c-0.18-0.101-0.25-0.304-0.25-0.512h-0.01c0-0.475 0.01-1.062 0.01-1.271v-7.989c0-0.206 0.07-0.408 0.25-0.511l0.03-0.014 0.82-0.404v-0.28-0.002h-4.03zm46.36 0v0.282l0.82 0.404 0.03 0.014c0.18 0.103 0.26 0.305 0.26 0.511v7.989c0 0.22 0.01 0.801 0 1.265 0 0.206-0.08 0.415-0.27 0.516l-0.03 0.014-0.82 0.408v0.279h4.04v-0.279l-0.82-0.408-0.03-0.014c-0.19-0.101-0.26-0.302-0.26-0.51-0.01-0.475 0-1.062 0-1.271v-7.989c0-0.206 0.07-0.408 0.26-0.511l0.03-0.014 0.82-0.404v-0.282h-4.03zm-59.44 0.002v0.022h-0.17v0.279l0.82 0.403 0.03 0.015c0.18 0.103 0.27 0.306 0.27 0.514v9.269c-0.01 0.195-0.08 0.381-0.26 0.477l-0.02 0.014h-0.01l-0.82 0.408v0.279h1.35v-0.008h1v0.008h1.34v-0.279l-0.81-0.408h-0.01l-0.02-0.014c-0.17-0.095-0.25-0.274-0.26-0.463v-7.916l5.56 7.619s1.14 1.517 2.52 1.738c0 0 0.48 0.095 1.03 0.026v-0.195c-0.05-0.017-0.11-0.039-0.17-0.065-0.64-0.318-0.77-1.057-0.79-1.519v-8.991c0.01-0.2 0.08-0.395 0.26-0.494l0.03-0.015 0.82-0.403v-0.279h-0.18v-0.022h-3.36v0.022h-0.16v0.279l0.82 0.403v0.001l0.04 0.014c0.18 0.103 0.25 0.3 0.25 0.5v7.621l-6.08-8.304c-0.39-0.54-1.04-0.536-1.04-0.536h-1.98zm18.17 0.016v0.004h-0.32v0.279l0.85 0.418c0.18 0.098 0.36 0.217 0.51 0.488l4.36 10.645h0.64l4.45-10.6c0.01-0.003 0.01-0.004 0.01-0.004 0.14-0.3 0.34-0.426 0.52-0.529l0.86-0.418v-0.279h-0.87v-0.004h-2.68v0.006h-0.37v0.279l0.82 0.403 0.04 0.015c0 0.004 0.01 0.01 0.02 0.018 0 0 0.25 0.159 0.17 0.453-0.01 0.015-0.01 0.031-0.01 0.045-0.01 0.012-0.01 0.027-0.02 0.037-0.01 0.038-0.02 0.06-0.02 0.06-0.07 0.19-0.16 0.413-0.27 0.698l-2.69 6.726-2.83-6.927c-0.06-0.161-0.15-0.404-0.24-0.661-0.04-0.199 0.07-0.331 0.13-0.392 0-0.001 0-0.004 0.01-0.006 0-0.004 0.01-0.008 0.01-0.012 0.02-0.014 0.04-0.029 0.06-0.041l0.03-0.013v-0.002l0.82-0.403v-0.279h-0.91v-0.004h-3.08zm-23.35 0.002v0.004h-0.26v0.279l0.82 0.403 0.04 0.015c0.16 0.091 0.24 0.26 0.25 0.442v0.048 6.079c0 2.222-0.91 3.466-2.58 3.527l-0.01 0.01c-0.09-0.002-0.18-0.004-0.27-0.004-1.76 0-2.72-1.247-2.72-3.533v-4.864c0-0.677-0.01-1.046-0.01-1.273 0.02-0.178 0.1-0.342 0.26-0.432l0.03-0.014v-0.001l0.82-0.403v-0.279h-0.26v-0.002h-3.44v0.002h-0.27v0.279l0.83 0.403v0.001l0.02 0.014c0.19 0.103 0.26 0.303 0.26 0.512v0.004 6.053c0 1.236-0.03 2.389 0.88 3.386 0.4 0.439 0.92 0.742 1.48 0.936 0 0 0.09 0.034 0.25 0.078 0.07 0.017 0.14 0.037 0.21 0.055 0.79 0.191 2.45 0.461 3.97-0.149 0-0.002 0.01-0.006 0.02-0.008 0.02-0.007 0.05-0.014 0.06-0.023 0.51-0.195 0.98-0.487 1.35-0.889 0.9-0.997 0.87-2.15 0.87-3.386l0.01-6.067v-0.006c0-0.204 0.08-0.398 0.25-0.496l0.03-0.014v-0.001l0.82-0.403v-0.279h-0.26v-0.004h-3.45zm79.59 0.002v0.281l0.85 0.418c0.18 0.103 0.36 0.235 0.55 0.522v0.002c0.13 0.186 0.25 0.386 0.38 0.601l2.95 4.725v2.619 1.312c-0.01 0.19-0.08 0.37-0.25 0.465l-0.03 0.014v0.004l-0.82 0.4v0.281h4.02v-0.281l-0.82-0.4v-0.004l-0.03-0.014c-0.18-0.102-0.26-0.303-0.26-0.51v-0.003-3.885l2.92-4.418 0.59-0.906c0.18-0.297 0.37-0.423 0.56-0.526l0.85-0.418v-0.279h-0.56v0.002h-3.56v0.279l0.82 0.403v0.001l0.03 0.014c0.01 0.004 0.02 0.011 0.03 0.018 0 0 0.3 0.19 0.14 0.535-0.13 0.251-2.48 3.861-2.48 3.861l-2.37-3.861c-0.12-0.254 0.01-0.424 0.09-0.496 0-0.001 0-0.002 0.01-0.004 0-0.004 0-0.01 0.01-0.014 0.02-0.014 0.04-0.029 0.06-0.041l0.03-0.013 0.82-0.403v-0.281h-4.53zm-30.12 1.025c1.1 0.056 2.01 0.582 2.04 2.024 0.05 2.005-1 2.357-2.2 2.445h-1.3v-4.459l1.46-0.006v-0.004z" transform="matrix(.8 0 0 -.8 206.76 416.39)" fill="#e5a823"/></g></g></svg>
